<svg width="29" height="18" viewBox="0 0 29 18" fill="none" xmlns="http://www.w3.org/2000/svg">
<rect width="29" height="18" fill="#F5F5F5"/>
<g id="HOME PAGE" clip-path="url(#clip0_0_1)">
<rect width="1539" height="2611" transform="translate(-42 -2489)" fill="white"/>
<rect id="Rectangle 6" x="-42" y="-199" width="1539" height="321" fill="#29366A"/>
<g id="BEHANCE" clip-path="url(#clip1_0_1)">
<path id="Vector" d="M0 17.589V0.0378907C3.66933 0.0378907 7.29353 -0.0695909 10.9048 0.0884702C12.4267 0.151695 13.465 1.32135 13.8841 2.76919C14.342 4.3498 13.9615 5.79132 12.7363 6.96729C12.4332 7.25812 12.0914 7.51102 11.7367 7.80185C14.213 8.6048 14.8321 9.51524 14.7741 12.177C14.7225 14.6364 13.207 16.6912 10.9113 17.3361C10.376 17.4878 9.80854 17.5827 9.2475 17.5827C6.18434 17.608 3.12764 17.5953 0 17.5953L0 17.589ZM3.8241 14.7439C5.55882 14.7439 7.15811 14.8198 8.7445 14.7186C10.1826 14.6301 11.0918 13.6248 11.1434 12.3287C11.195 11.1148 10.4276 9.90091 9.24105 9.79975C7.45475 9.65433 5.6491 9.76181 3.8241 9.76181V14.7376V14.7439ZM3.8499 6.89774C5.47498 6.89774 6.97754 6.94832 8.4801 6.87878C9.64732 6.8282 10.4212 5.97467 10.4405 4.90617C10.4599 3.82504 9.69891 2.93357 8.55103 2.87667C7.00978 2.80712 5.46209 2.8577 3.85635 2.8577V6.89142L3.8499 6.89774Z" fill="#FDEDCB"/>
<path id="Vector_2" d="M28.5486 13.5174C27.3878 16.8872 23.9764 18.6701 20.7134 17.766C17.2504 16.805 15.1352 13.1759 15.98 9.6417C16.8248 6.12009 20.1201 3.84401 23.4863 4.46361C27.0202 5.11483 29.4192 8.33927 28.9355 11.9557H19.4752C19.5268 13.2961 19.9847 14.2634 21.1261 14.7629C22.2933 15.2687 23.712 15.49 24.5439 14.5289C25.7176 13.1696 27.0847 13.6628 28.5486 13.5174ZM25.3113 9.65434C25.221 7.91567 24.0732 6.84717 22.4223 6.92304C20.8939 6.99259 19.8492 8.10534 19.8815 9.65434H25.3113Z" fill="#FDEDCB"/>
<path id="Vector_3" d="M18.9399 1.15698H26.1625V2.74392H18.9399V1.15698Z" fill="#FDEDCB"/>
</g>
</g>
<defs>
<clipPath id="clip0_0_1">
<rect width="1539" height="2611" fill="white" transform="translate(-42 -2489)"/>
</clipPath>
<clipPath id="clip1_0_1">
<rect width="29" height="18" fill="white"/>
</clipPath>
</defs>
</svg>
